<svg role="image" aria-label="imaginetees.ai logo" viewBox="0 0 149 52" fill="none" xmlns="http://www.w3.org/2000/svg"><path d="M58.4747 24.0841C58.384 23.2653 57.9944 22.0894 56.6375 21.1426C54.3703 19.5624 49.9536 19.2019 44.8249 19.5523C39.4408 19.9196 33.2709 21.0719 27.9909 22.4095C21.0955 24.1515 14.6367 26.4224 9.64897 28.8416C9.30639 29.0033 8.97051 29.1718 8.64472 29.3369C2.53185 32.4502 -0.286121 35.3613 0.0228811 38.232C0.113567 39.0507 0.503178 40.2266 1.8601 41.1734C3.60999 42.3931 6.6362 42.885 10.2838 42.885C11.1369 42.885 12.0202 42.8581 12.9338 42.8075C18.4858 42.5009 24.9815 41.3048 30.5066 39.9065C37.3819 38.1646 43.8273 35.9038 48.8083 33.4947C49.1643 33.3228 49.5136 33.1544 49.8529 32.9792C55.6634 30.0175 58.4982 27.2412 58.4982 24.5053C58.4982 24.3637 58.4915 24.2256 58.4747 24.0841ZM53.2082 25.5868C52.073 26.4595 50.4877 27.5276 48.6605 28.508C48.15 28.7843 47.5924 29.0707 46.9845 29.3639C42.2588 31.6651 36.0149 33.8586 29.405 35.5264C23.1309 37.1167 17.0113 38.1107 12.1747 38.3263C11.6306 38.3499 11.1201 38.3667 10.6432 38.3667C8.32228 38.3903 6.31712 38.2657 5.0173 38.0837C4.33548 37.986 4.04999 37.1571 4.53028 36.6619C5.58828 35.5668 7.40535 33.963 9.59523 32.7669C10.1696 32.4535 10.8111 32.1233 11.5131 31.7797C16.2388 29.4784 22.4826 27.2917 29.0926 25.6171C35.3667 24.0302 41.4863 23.0362 46.3228 22.8206C46.6889 22.8037 47.0382 22.7936 47.3741 22.7869C49.4565 22.7397 51.2971 22.9789 52.6641 23.262C53.7591 23.4911 54.0949 24.9028 53.2082 25.5868Z" fill="black"></path><path d="M53.2078 25.5868C52.0726 26.4594 50.4872 27.5275 48.6601 28.508C48.1496 28.7843 47.592 29.0707 46.9841 29.3638C42.2584 31.6651 36.0145 33.8585 29.4046 35.5264C23.1305 37.1167 17.0109 38.1106 12.1743 38.3263C11.6302 38.3499 11.1197 38.3667 10.6427 38.3667C8.32187 38.3903 6.31671 38.2656 5.01688 38.0837C4.33506 37.986 4.04957 37.1571 4.52987 36.6618C5.58787 35.5668 7.40494 33.963 9.59482 32.7669C10.1692 32.4535 10.8107 32.1233 11.5127 31.7796C16.2384 29.4784 22.4822 27.2917 29.0922 25.6171C35.3663 24.0301 41.4859 23.0362 46.3224 22.8205C46.6885 22.8037 47.0378 22.7936 47.3737 22.7869C49.4561 22.7397 51.2967 22.9789 52.6637 23.2619C53.7586 23.491 54.0945 24.9028 53.2078 25.5868Z" fill="white"></path><path d="M11.5087 32.9488C10.8067 33.2925 10.1685 33.6193 9.59083 33.936C9.49679 33.1678 9.45312 32.3861 9.45312 31.5943C9.45312 31.5505 9.45313 31.5 9.45648 31.4562C9.45984 30.5701 9.52702 29.694 9.64457 28.8416C14.6323 26.4224 21.0911 24.1515 27.9865 22.4095C33.2665 21.0719 39.4364 19.9196 44.8205 19.5523C45.3511 20.243 45.8382 20.9742 46.2714 21.7323C46.6812 22.4466 47.0473 23.1845 47.3664 23.9527C47.0305 23.9594 46.6812 23.9695 46.3151 23.9864C41.4785 24.202 35.3589 25.196 29.0848 26.7863C22.4816 28.4575 16.2377 30.6442 11.5087 32.9488Z" fill="black"></path><path d="M48.8984 31.5944C48.8984 32.2345 48.8682 32.8714 48.8077 33.4947C48.4047 37.73 46.6716 41.5744 44.0283 44.6068C42.5 46.3622 40.6729 47.8414 38.6174 48.9634C35.8128 50.5031 32.5952 51.3758 29.176 51.3758C22.435 51.3758 16.4834 47.9795 12.9299 42.8042C12.4429 42.1034 12.0029 41.3655 11.6132 40.6006C11.2438 39.883 10.9214 39.1316 10.6426 38.3634C11.1195 38.36 11.63 38.3465 12.1742 38.3196C17.0107 38.1073 23.1303 37.11 29.4044 35.5197C36.0144 33.8485 42.2549 31.6584 46.9839 29.3571C47.5885 29.0606 48.1494 28.7776 48.6566 28.5013C48.7842 29.2931 48.8581 30.1051 48.885 30.9272C48.895 31.153 48.8984 31.3754 48.8984 31.5944Z" fill="black"></path><path d="M34.5176 47.2686L43.7977 51.1062C44.671 51.4668 45.5778 50.675 45.3461 49.7585L42.9043 40.1929L34.5176 47.2686Z" fill="black"></path><path d="M48.661 28.5081C48.1505 28.781 47.5929 29.0674 46.9883 29.3639C42.2593 31.6651 36.0188 33.8586 29.4088 35.5264C23.1313 37.1167 17.0118 38.1107 12.1786 38.3263C11.6344 38.3499 11.1239 38.3668 10.647 38.3701C10.1331 36.9617 9.77707 35.4759 9.5957 33.9361C10.17 33.6194 10.8116 33.2925 11.5135 32.9489C16.2426 30.6476 22.4831 28.4575 29.0931 26.7863C35.3705 25.196 41.4901 24.2054 46.3233 23.9864C46.6894 23.9729 47.0387 23.9594 47.3746 23.9527C47.9758 25.3914 48.4124 26.9177 48.661 28.5081Z" fill="white"></path><path d="M47.945 20.681C46.924 16.8097 43.9246 15.1284 39.7565 15.2092C39.2997 11.0279 37.3113 8.54129 33.8888 7.82362C30.1673 7.04193 27.2016 8.38293 24.2795 12.197C20.736 10.6572 17.2799 10.9537 14.3276 13.8413C11.2443 16.8568 11.0864 20.2599 12.9572 23.6798C9.39028 26.4527 8.03336 29.0235 8.8193 32.3727C9.30295 34.428 10.3139 35.897 11.7481 36.8404C14.4989 36.7865 17.7233 36.5641 21.2835 36.0419C21.6127 34.8458 21.9788 33.6564 22.2643 32.4535C22.721 30.5263 21.7134 28.9932 19.6478 28.4979C19.2145 30.0478 18.7813 31.5944 18.3513 33.1443C17.9718 34.5156 17.7098 34.6975 16.232 34.6133C14.1832 34.4954 12.4904 32.9589 12.3359 31.0822C12.1679 28.9932 13.4443 27.0862 15.5334 26.3853C17.1053 25.853 18.704 25.3948 20.2759 24.8691C22.3314 24.1784 23.4062 22.3657 22.8554 20.4283C21.082 20.9877 19.3657 21.4897 17.6796 22.0861C16.934 22.3489 16.5511 22.1703 16.1648 21.6009C15.0094 19.9196 15.3251 17.5745 16.9575 16.0954C18.6704 14.5488 21.176 14.3669 22.8655 15.745C24.0914 16.7456 25.2266 17.8474 26.4224 18.8784C27.9976 20.243 30.0565 20.1487 31.6485 18.5988C30.3655 17.4465 29.1093 16.2571 27.7759 15.1519C27.2587 14.7207 27.2822 14.3399 27.5509 13.7907C28.5249 11.8163 30.8861 10.7347 33.0323 11.3042C35.1483 11.8668 36.4011 13.8986 35.8906 16.065C35.5043 17.6992 34.9636 19.3131 34.5706 20.9472C34.1172 22.8408 35.1886 24.4412 37.1938 24.8523C37.664 23.1777 38.1812 21.5099 38.591 19.8252C38.7657 19.0907 39.1485 18.8346 39.8673 18.7673C42.0706 18.5584 44.0993 19.9465 44.462 21.9547C44.8483 24.0773 43.5552 26.2169 41.3754 26.9649C39.7733 27.5174 38.1409 27.9689 36.5355 28.5148C34.4967 29.2122 33.385 31.1328 34.0164 32.9354C35.2793 32.5344 36.5523 32.157 37.8151 31.7426C40.4148 30.752 43.0682 29.5727 45.7551 28.1812C47.8443 26.136 48.7175 23.6225 47.945 20.681Z" fill="black"></path><path d="M41.3765 26.9581C39.7744 27.5107 38.1421 27.9622 36.5366 28.508C34.4979 29.2055 33.3861 31.126 34.0176 32.9286C35.2805 32.5277 36.5534 32.1503 37.8163 31.7359C35.1696 32.7467 32.5901 33.5688 30.098 34.2292C28.6134 34.6234 27.1624 34.9637 25.7484 35.2535C24.2135 35.5735 22.7222 35.833 21.2847 36.0419C21.6138 34.8458 21.9799 33.6564 22.2654 32.4535C22.7222 30.5263 21.7146 28.9932 19.649 28.4979C19.2157 30.0478 18.7824 31.5943 18.3525 33.1442C17.973 34.5156 17.711 34.6975 16.2332 34.6133C14.1843 34.4954 12.4915 32.9589 12.337 31.0822C12.1691 28.9932 13.4454 27.0862 15.5345 26.3853C17.1064 25.853 18.7052 25.3947 20.2771 24.8691C22.3326 24.1784 23.4074 22.3657 22.8566 20.4283C21.0831 20.9876 19.3668 21.4897 17.6808 22.0861C16.9351 22.3489 16.5522 22.1703 16.166 21.6009C15.0106 19.9196 15.3263 17.5745 16.9586 16.0954C18.6716 14.5488 21.1772 14.3669 22.8666 15.7449C24.0926 16.7456 25.2278 17.8474 26.4235 18.8784C27.9988 20.243 30.0576 20.1487 31.6497 18.5988C30.3667 17.4465 29.1105 16.2571 27.7771 15.1519C27.2598 14.7207 27.2833 14.3399 27.552 13.7907C28.5261 11.8163 30.8873 10.7347 33.0335 11.3041C35.1495 11.8668 36.4023 13.8985 35.8917 16.065C35.5055 17.6992 34.9647 19.3131 34.5718 20.9472C34.1183 22.8408 35.1898 24.4412 37.1949 24.8523C37.6651 23.1777 38.1824 21.5099 38.5922 19.8252C38.7668 19.0907 39.1497 18.8346 39.8685 18.7672C42.0718 18.5583 44.1005 19.9465 44.4632 21.9546C44.8461 24.0672 43.553 26.2101 41.3765 26.9581Z" fill="white"></path><path d="M45.8363 0C45.8699 0.117927 45.8968 0.185314 45.9035 0.252701C45.9572 0.778319 45.9942 1.30394 46.058 1.82955C46.189 2.90438 46.7364 3.74334 47.5358 4.4408C47.8247 4.6935 48.1236 4.93609 48.4125 5.18879C48.4595 5.22922 48.4796 5.30335 48.5132 5.36063C48.4494 5.39095 48.3889 5.44486 48.3218 5.4516C47.7508 5.51899 47.1731 5.55942 46.6055 5.64365C45.6247 5.79191 44.8623 6.33437 44.2208 7.06552C43.9588 7.36202 43.7136 7.67537 43.455 7.97187C43.4012 8.03589 43.3106 8.06621 43.24 8.11339C43.2098 8.03589 43.1628 7.96176 43.1561 7.88427C43.0922 7.31485 43.0519 6.74543 42.9713 6.17938C42.8403 5.26292 42.3735 4.52166 41.7017 3.90507C41.3625 3.59172 41.0031 3.30196 40.6605 2.99535C40.6101 2.94818 40.5833 2.87405 40.543 2.8134C40.6135 2.78308 40.6773 2.73254 40.7512 2.72243C41.3054 2.65841 41.8663 2.62135 42.4171 2.53375C43.3643 2.38887 44.1267 1.90031 44.7548 1.18938C45.0571 0.849075 45.3459 0.495294 45.6415 0.148251C45.6852 0.10445 45.7456 0.0707563 45.8363 0Z" fill="black"></path><path d="M2.56616 20.553C2.64005 20.58 2.68707 20.5901 2.72738 20.6103C3.03302 20.7788 3.33195 20.954 3.63759 21.1157C4.26903 21.4459 4.92734 21.4628 5.60244 21.2876C5.84763 21.2235 6.08946 21.1528 6.338 21.0921C6.37831 21.082 6.42533 21.0955 6.46899 21.1022C6.46228 21.1494 6.46899 21.2 6.44884 21.2404C6.27083 21.5773 6.07602 21.9041 5.91145 22.2478C5.62596 22.8375 5.63267 23.4574 5.79053 24.0807C5.85435 24.3334 5.9316 24.5828 5.99541 24.8388C6.00885 24.8928 5.99206 24.9534 5.99206 25.0107C5.93832 24.9972 5.88122 24.9938 5.8342 24.9703C5.50168 24.7917 5.17925 24.5996 4.84001 24.4312C4.29254 24.1582 3.7182 24.1347 3.13378 24.2694C2.83822 24.3368 2.54601 24.4244 2.25044 24.4952C2.20678 24.5053 2.1564 24.4918 2.10938 24.4918C2.11945 24.4413 2.11609 24.3874 2.1396 24.3436C2.3109 24.0167 2.50235 23.7 2.66356 23.3664C2.93898 22.797 2.96249 22.1973 2.81135 21.5874C2.74081 21.2943 2.65685 21.0045 2.5796 20.7148C2.56616 20.6743 2.56952 20.6305 2.56616 20.553Z" fill="black"></path><path d="M70.7747 11.8365C71.3894 11.8365 71.8966 12.0252 72.2929 12.4025C72.6892 12.7799 72.8874 13.2584 72.8874 13.8345C72.8874 14.4241 72.6892 14.9093 72.2929 15.2867C71.8966 15.6641 71.3894 15.8527 70.7747 15.8527C70.1735 15.8527 69.6697 15.6607 69.2667 15.2766C68.8636 14.8925 68.6621 14.4107 68.6621 13.8345C68.6621 13.2584 68.8636 12.7799 69.2667 12.4025C69.6697 12.0252 70.1702 11.8365 70.7747 11.8365ZM69.0282 28.508V17.187H72.5179V28.508H69.0282Z" fill="black"></path><path d="M87.9693 16.9208C89.1851 16.9208 90.1524 17.3285 90.8611 18.1439C91.5732 18.9593 91.9292 20.0543 91.9292 21.4257V28.5046H88.4395V22.2107C88.4395 21.5537 88.3152 21.0618 88.07 20.7383C87.8248 20.4148 87.3848 20.2531 86.7568 20.2531C85.4435 20.2531 84.7886 21.0011 84.7886 22.4971V28.508H81.2988V22.2107C81.2988 21.5537 81.1746 21.0618 80.9294 20.7383C80.6842 20.4148 80.2442 20.2531 79.6161 20.2531C78.3029 20.2531 77.6479 21.0011 77.6479 22.4971V28.508H74.1582V17.187H77.6479V18.464C78.4809 17.4363 79.549 16.9208 80.8488 16.9208C82.4207 16.9208 83.5492 17.5779 84.2344 18.8953C85.1379 17.5812 86.3806 16.9208 87.9693 16.9208Z" fill="black"></path><path d="M101.551 17.1904H105.037L105.017 28.5114H101.531V27.2984C100.725 28.2856 99.6634 28.7809 98.3502 28.7809C96.8992 28.7809 95.6901 28.225 94.7194 27.1131C93.7487 26.0012 93.2617 24.5827 93.2617 22.8543C93.2617 21.1258 93.7521 19.7039 94.7295 18.5954C95.7069 17.4835 96.9093 16.9276 98.33 16.9276C99.6836 16.9276 100.758 17.4431 101.551 18.4707V17.1904ZM97.4668 24.731C97.9169 25.2061 98.4845 25.4419 99.1697 25.4419C99.8549 25.4419 100.423 25.2061 100.873 24.731C101.323 24.2559 101.551 23.6292 101.551 22.8475C101.551 22.0793 101.326 21.456 100.873 20.9742C100.423 20.4957 99.8549 20.2531 99.1697 20.2531C98.4845 20.2531 97.9169 20.4923 97.4668 20.9742C97.0168 21.456 96.7884 22.0793 96.7884 22.8475C96.7884 23.6326 97.0168 24.2593 97.4668 24.731Z" fill="black"></path><path d="M114.761 17.1904H118.248V28.3463C118.248 30.0209 117.731 31.3686 116.699 32.3895C115.665 33.4104 114.288 33.9226 112.565 33.9226C111.074 33.9226 109.777 33.5452 108.675 32.7905C107.574 32.0357 106.936 30.9171 106.758 29.4346H110.348C110.566 30.3544 111.272 30.8127 112.461 30.8127C113.992 30.8127 114.758 30.031 114.758 28.4676V27.0895C113.939 28.0767 112.87 28.572 111.557 28.572C110.106 28.572 108.897 28.0228 107.926 26.9244C106.956 25.826 106.469 24.4345 106.469 22.7464C106.469 21.0584 106.959 19.6669 107.937 18.5684C108.914 17.47 110.123 16.9208 111.557 16.9208C112.884 16.9208 113.952 17.4296 114.758 18.4438V17.1904H114.761ZM112.383 25.2364C113.069 25.2364 113.636 25.0039 114.086 24.5356C114.536 24.0706 114.765 23.4742 114.765 22.7464C114.765 22.0187 114.54 21.4223 114.086 20.9573C113.636 20.4923 113.069 20.2565 112.383 20.2565C111.698 20.2565 111.131 20.489 110.681 20.9573C110.231 21.4223 110.002 22.022 110.002 22.7464C110.002 23.4742 110.231 24.0706 110.691 24.5356C111.147 25.0039 111.712 25.2364 112.383 25.2364Z" fill="black"></path><path d="M121.636 11.8365C122.251 11.8365 122.758 12.0252 123.154 12.4025C123.551 12.7799 123.749 13.2584 123.749 13.8345C123.749 14.4241 123.551 14.9093 123.154 15.2867C122.758 15.6641 122.251 15.8527 121.636 15.8527C121.035 15.8527 120.531 15.6607 120.128 15.2766C119.725 14.8925 119.523 14.4107 119.523 13.8345C119.523 13.2584 119.725 12.7799 120.128 12.4025C120.531 12.0252 121.035 11.8365 121.636 11.8365ZM119.89 28.508V17.187H123.379V28.508H119.89Z" fill="black"></path><path d="M131.769 16.9208C133.042 16.9208 134.04 17.3252 134.765 18.1338C135.491 18.9424 135.853 20.0409 135.853 21.4257V28.5046H132.367V22.2107C132.367 21.5537 132.236 21.0618 131.977 20.7383C131.719 20.4148 131.252 20.2531 130.584 20.2531C129.203 20.2531 128.511 21.0011 128.511 22.4971V28.508H125.021V17.187H128.511V18.464C129.344 17.4363 130.429 16.9208 131.769 16.9208Z" fill="black"></path><path d="M143.135 16.9208C144.983 16.9208 146.46 17.561 147.569 18.8447C148.677 20.1285 149.141 21.7087 148.963 23.5888H140.734C140.814 24.4109 141.086 25.0342 141.543 25.452C142 25.8698 142.558 26.0787 143.216 26.0787C143.693 26.0787 144.113 25.9642 144.469 25.7384C144.825 25.5127 145.07 25.1993 145.208 24.8017H148.798C148.429 26.1326 147.733 27.1266 146.716 27.787C145.698 28.444 144.529 28.7742 143.216 28.7742C141.436 28.7742 139.988 28.2115 138.866 27.0862C137.745 25.9608 137.184 24.549 137.184 22.8475C137.184 21.1595 137.741 19.7511 138.856 18.619C139.975 17.4869 141.399 16.9208 143.135 16.9208ZM143.115 19.6163C141.926 19.6163 141.167 20.2329 140.838 21.4695H145.332C145.208 20.9068 144.959 20.4587 144.583 20.1217C144.207 19.7848 143.72 19.6163 143.115 19.6163Z" fill="black"></path><path d="M77.5867 43.4881L78.1812 46.3083C77.8252 46.5542 77.3113 46.7834 76.6429 46.9889C75.9712 47.1944 75.3095 47.2989 74.6512 47.2989C73.432 47.2989 72.4109 46.9181 71.5847 46.1567C70.7585 45.3952 70.342 44.226 70.342 42.6458V39.0035H68.4141V35.7117H70.342V33.3868L73.8283 32.6254V35.7117H77.6237V39.0035H73.8283V42.4403C73.8283 43.5117 74.3086 44.0441 75.2659 44.0441C75.6487 44.0407 76.4246 43.8554 77.5867 43.4881Z" fill="black"></path><path d="M84.6431 35.4388C86.4904 35.4388 87.9682 36.0789 89.0766 37.3626C90.1849 38.6464 90.6484 40.2266 90.4704 42.1067H82.2416C82.3222 42.9288 82.5942 43.5521 83.051 43.9699C83.5078 44.3877 84.0654 44.5966 84.7237 44.5966C85.2006 44.5966 85.6204 44.4821 85.9765 44.2563C86.3325 44.0306 86.5777 43.7172 86.7154 43.3197H90.3059C89.9364 44.6505 89.2412 45.6445 88.2235 46.3049C87.2058 46.9619 86.0369 47.2921 84.7237 47.2921C82.9435 47.2921 81.4959 46.7294 80.3741 45.6041C79.2523 44.4787 78.6914 43.0669 78.6914 41.3654C78.6914 39.6774 79.249 38.269 80.3641 37.1369C81.4791 36.0048 82.9066 35.4388 84.6431 35.4388ZM84.6229 38.1342C83.4339 38.1342 82.6749 38.7508 82.3457 39.9874H86.8397C86.7154 39.4247 86.4668 38.9766 86.0907 38.6396C85.7145 38.3027 85.2241 38.1342 84.6229 38.1342Z" fill="black"></path><path d="M97.4868 35.4388C99.3341 35.4388 100.812 36.0789 101.92 37.3626C103.029 38.6464 103.492 40.2266 103.314 42.1067H95.0853C95.1659 42.9288 95.438 43.5521 95.8948 43.9699C96.3516 44.3877 96.9091 44.5966 97.5674 44.5966C98.0444 44.5966 98.4642 44.4821 98.8202 44.2563C99.1762 44.0306 99.4214 43.7172 99.5591 43.3197H103.15C102.78 44.6505 102.085 45.6445 101.067 46.3049C100.05 46.9619 98.8807 47.2921 97.5674 47.2921C95.7873 47.2921 94.3397 46.7294 93.2179 45.6041C92.0961 44.4787 91.5352 43.0669 91.5352 41.3654C91.5352 39.6774 92.0927 38.269 93.2078 37.1369C94.3229 36.0048 95.7504 35.4388 97.4868 35.4388ZM97.4667 38.1342C96.2777 38.1342 95.5186 38.7508 95.1894 39.9874H99.6834C99.5591 39.4247 99.3106 38.9766 98.9344 38.6396C98.5582 38.3027 98.0679 38.1342 97.4667 38.1342Z" fill="black"></path><path d="M109.777 47.2955C108.246 47.2955 106.963 46.9518 105.932 46.2678C104.897 45.5805 104.279 44.6438 104.074 43.4477H107.604C107.796 44.2563 108.535 44.6606 109.821 44.6606C110.845 44.6606 111.359 44.4012 111.359 43.8789C111.359 43.6599 111.228 43.4982 110.97 43.3938C110.711 43.2927 110.08 43.131 109.082 42.9086C107.426 42.5514 106.257 42.1134 105.572 41.5912C104.887 41.0689 104.548 40.3209 104.548 39.3472C104.548 38.1275 105.008 37.174 105.932 36.4866C106.855 35.7993 108.132 35.459 109.757 35.459C112.767 35.459 114.463 36.6382 114.846 39.0001H111.316C111.151 38.397 110.583 38.0938 109.613 38.0938C108.588 38.0938 108.074 38.36 108.074 38.8957C108.074 39.0743 108.152 39.1956 108.31 39.2562C108.467 39.3169 108.86 39.4179 109.488 39.5561C109.613 39.583 109.7 39.6033 109.754 39.6167C111.628 40.0278 112.961 40.486 113.754 40.9847C114.547 41.4867 114.943 42.2852 114.943 43.3837C114.943 44.6472 114.459 45.6142 113.495 46.2847C112.538 46.9585 111.295 47.2955 109.777 47.2955Z" fill="black"></path></svg>