<?xml version="1.0" encoding="utf-8"?>
<!-- Generator: Adobe Illustrator 25.0.1, SVG Export Plug-In . SVG Version: 6.00 Build 0)  -->
<svg version="1.0" id="Layer_1" xmlns="http://www.w3.org/2000/svg" xmlns:xlink="http://www.w3.org/1999/xlink" x="0px" y="0px"
	 viewBox="0 0 368 258" style="enable-background:new 0 0 368 258;" xml:space="preserve">
<style type="text/css">
	.st0{fill:#E69203;}
	.st1{fill:#0A2972;}
	.st2{fill:#FFFFFF;}
	.st3{fill:#A16602;}
	.st4{fill:none;stroke:#0A2972;stroke-width:0.27;}
	.st5{fill:none;}
</style>
<path class="st0" d="M162.3,93.4c-1.2-1.5-3.2-2.2-5.1-1.8c0.7,0.7,1.3,1.6,1.6,2.5c0.4,0.9,0.6,1.8,0.6,2.7c-1.3-0.2-2.6,0-3.7,0.5
	c-1.5,0.6-2.5,2.1-2.5,3.8c1.5-1.2,3.5-1.4,5.2-0.7c2.5,1.1,3.5,4.5,3.5,4.5c0.1-0.7,0.3-1.4,0.6-2.1c0.7-1,1.3-2,1.7-3.2
	C164.7,98.2,164.5,96,162.3,93.4"/>
<path class="st0" d="M155.4,93c-0.5-2.2,0-3,0-3c1.4-0.9,3.2-1,4.8-0.3c1.3,0.5,2.3,1.6,2.7,3c0.9-0.8,1.5-1.9,1.7-3.2
	c0.1-1.6-0.6-3.2-1.8-4.2c-1-0.8-2.1-1.4-3.3-1.9c0.8-0.4,1.5-1,2.1-1.8c0.2-0.3,0.3-0.7,0.4-1.1c0.1-0.6,0.4-1.1,0.7-1.6
	c0.6-0.7,1.2-1.2,2-1.7c-1.5-0.5-3.1-0.5-4.5,0.1c-2.3,1-2.9,2-5.4,3l-0.5,0.2l0,0c-1.5,0.6-3.1,0.6-4.6,0c0,0,1,1,1,3.8
	s-0.2,5,1,7.5c1,1.9,2.9,3.3,5,3.7C155.9,94.9,155.6,93.9,155.4,93"/>
<path class="st0" d="M174.8,111.2c-1.3-1.5-2.1-4.3-3.7-7.1c-2.5-4.5-5.7-5.4-5.7-5.4c0.5,1.3,0.5,2.7,0,4c-1.3,2.5-2.4,1.5-2.4,1.5
	c0.1,1.1,0.7,2.1,1.7,2.7c1.2,0.9,2.9,0.7,4-0.4c0,1.7,0.8,3.3,2.2,4.2c1.4,1,3.1,1.7,4.9,1.9c0.6,0.2,1.2,0.5,1.2,0.5
	C176.2,112.6,175.4,111.9,174.8,111.2"/>
<path class="st0" d="M155.2,79c1.6-3.7,5.5-5.8,9.4-5.2c0,0-3.3-3.7-6.1-3.8C155.7,69.9,154.4,75.8,155.2,79"/>
<path class="st0" d="M162.5,54.6c-0.1,1.2,0,2.7-0.3,4.5c-0.2,1.1-0.9,2.1-1.9,2.8c1.7,0.4,3.4-0.3,4.3-1.7c1.2-1.9,0.2-4.2-0.5-5.4
	c-0.4-0.9-0.7-2-0.6-3C163,52.7,162.7,53.6,162.5,54.6"/>
<path class="st0" d="M151,48.8c0.4,1.2,0.7,2.5,0.7,3.7c0,0.5,0.2,0.9,0.4,1.3c0,0-2.4,0.3-3.1,1.5c-0.7,1.2-0.7,2.7,0.1,3.9
	c0.3-0.9,1-1.6,1.9-1.7c1.5-0.2,3,0.3,4,1.3c1.3,1.1,3,1.8,4.7,1.9c-0.4-1.1-0.4-2.3-0.1-3.5c0.5-1.5,1.2-2.9,2.1-4.2
	c0.8-1,1.2-2.4,0.9-3.7c-0.1-0.9-0.4-1.7-0.8-2.4c-0.2,0.8-0.8,1.4-1.4,1.8c-1,0.5-1.9,1.1-2.7,1.9c-0.5,0.5-0.9,1.1-1,1.8
	c-0.1-1.3-0.6-2.6-1.4-3.7c-1.1-1.4-2.5-2.8-3.9-3.1c-0.9-0.3-1.9-0.4-2.9-0.2C149.7,46.3,150.6,47.5,151,48.8"/>
<path class="st0" d="M144.9,61.9c0.7-1,1.9-1.4,3.1-1.1c0,0-2.5-4.1-5-0.8c-3,3.8,2.8,6.7,2.8,6.7S143.6,64,144.9,61.9"/>
<path class="st0" d="M151.2,78.1c0.7,0.8,1.6,1.4,2.6,1.7c-0.6-2.5-0.5-5.1,0.2-7.5c0.9-2.6,3-4.6,5.7-5.3c1.1-0.2,2.3-0.5,3.3-0.9
	c0.7-0.4,1.3-1,1.5-1.7c-1,0.2-2.1,0.1-3-0.3c-1.6-0.7-3-1.5-4.4-2.5c-1.4-1.1-3.2-1.7-5-1.7c-0.9-0.2-1.8,0.1-2.5,0.7
	c0.8,0.3,1.4,0.9,1.9,1.5c0.5,0.9,0.7,1.9,0.3,2.9c-0.7-0.3-1.4-0.5-2.1-0.6c-1.2-0.2-1.9,0-2.6-0.2c-0.4-0.1-0.7-0.3-0.9-0.6
	c-0.2,1.1,0,2.3,0.5,3.3c0.8,1.9,2,2.1,2,2.1c-1.8,0.3-3.3,1.7-3.8,3.4c-0.6,2.4,0.2,4.9,2.1,6.5c0,0,0.2-2,1.2-2.4
	c0.7-0.3,1.4-0.7,2.1-1.2C150.2,76.2,150.5,77.2,151.2,78.1"/>
<path class="st0" d="M148.4,53.1c0.5-0.5,1.2-0.8,2-0.9c-0.7-0.6-1.2-1.3-1.4-2.2c-0.4-0.9-0.5-2-0.2-3c-1,1-1.7,2.2-2,3.5
	c-0.3,1.6-0.1,3.2,0.5,4.6C147.4,54.4,147.8,53.7,148.4,53.1"/>
<path class="st1" d="M200.6,84.9V69h-32.9v15.9c0,0-1.1,19.6,16.5,28.3C201.7,104.5,200.6,84.9,200.6,84.9"/>
<path class="st1" d="M160.6,110.2c0.2-0.4,0.6-0.7,1.1-0.7c0.2,0,0.4,0.1,0.6,0.2c0.8,0.5,1.6,0.9,2.4,1.1c1,0.2,1.7,0,1.8-0.2
	s-1.1-1.5-2.3-1.7c-1.9-0.2-3.8-0.2-5.7,0.2c-2.6,0.4-3.5-0.1-3.7-0.5s0-0.5,0.2-0.8c-0.3,0-0.6,0.2-0.8,0.5c-0.6,1.2-0.8,2.6-0.7,4
	c0,2,0.1,3.7,1.3,4s2.1-0.6,2.9-0.7s1.2,0.3,1.2,0.3L160.6,110.2z"/>
<path class="st1" d="M207.6,110.2c-0.2-0.4-0.6-0.7-1.1-0.7c-0.2,0-0.4,0.1-0.6,0.2c-0.8,0.5-1.6,0.9-2.4,1.1
	c-1.1,0.2-1.7,0-1.8-0.2s1.1-1.5,2.3-1.7c1.9-0.2,3.8-0.2,5.7,0.2c2.6,0.4,3.5-0.1,3.7-0.5s0-0.5-0.2-0.8c0.3,0,0.6,0.2,0.8,0.5
	c0.6,1.2,0.8,2.6,0.7,4c0,2-0.1,3.7-1.3,4s-2.1-0.6-2.9-0.7c-0.4-0.1-0.9,0-1.2,0.3L207.6,110.2z"/>
<path class="st1" d="M209.1,118c-5.9,4.1-14.9,6.7-25,6.7c-10.1,0-19-2.6-24.9-6.7c-0.1-0.1-0.2-0.3-0.2-0.4c0-0.1,0-0.1,0-0.2
	l2.3-7c0.1-0.2,0.3-0.3,0.5-0.3c0.1,0,0.3,0.1,0.4,0.2c3.5,3.7,12,6.3,22,6.3s18.6-2.7,22.1-6.4c0.1-0.1,0.2-0.1,0.4-0.1
	c0.2,0,0.4,0.1,0.4,0.3c0,0,2.3,7,2.3,7c0,0.1,0,0.1,0,0.2C209.3,117.7,209.2,117.9,209.1,118"/>
<path class="st1" d="M164.9,40.7c0.4,0,0.2-0.3-0.1-0.7l-0.9-1c-0.3-0.3-0.8-0.5-1.2-0.5h-1.3c-0.4,0-0.4,0.3,0,0.7
	C162.4,40.1,163.6,40.6,164.9,40.7 M171.9,40.7c-0.3,0-0.5-0.2-0.7-0.3l-1.3-1.6c-0.2-0.2-0.1-0.3,0-0.3h1.7c0.3,0,0.5,0.2,0.7,0.3
	l1.3,1.6c0.2,0.2,0.2,0.4,0,0.4L171.9,40.7z M167.8,40.7c-0.3,0-0.5-0.2-0.7-0.3l-1.3-1.6c-0.2-0.2-0.1-0.3,0-0.3h1.2
	c0.3,0,0.5,0.2,0.7,0.3l1.3,1.6c0.2,0.2,0.1,0.4,0,0.4L167.8,40.7z M176.5,40.7c-0.3,0-0.5-0.2-0.7-0.3l-1.3-1.6
	c-0.2-0.2-0.1-0.3,0.1-0.3h2.8c0.3,0,0.5,0.2,0.7,0.3l1.3,1.6c0.2,0.2,0.2,0.4,0,0.4L176.5,40.7z M192.3,40.7c0.3,0,0.5-0.2,0.7-0.3
	l1.3-1.6c0.2-0.2,0.1-0.4,0-0.4h-1.7c-0.3,0-0.5,0.2-0.7,0.4l-1.3,1.6c-0.2,0.2-0.1,0.3,0,0.3H192.3z M196.4,40.7
	c0.3,0,0.5-0.2,0.7-0.3l1.3-1.6c0.2-0.2,0.1-0.4-0.1-0.4h-1.2c-0.3,0-0.5,0.2-0.7,0.4l-1.3,1.6c-0.2,0.2-0.1,0.3,0,0.3H196.4z
	 M203.4,40.7c-0.4,0-0.2-0.3,0.1-0.7l0.9-1c0.3-0.3,0.8-0.5,1.2-0.5h1.3c0.4,0,0.4,0.3,0,0.7C206,40.1,204.7,40.7,203.4,40.7
	 M200.5,40.8c0.3,0,0.5-0.2,0.6-0.3l1.3-1.6c0.2-0.2,0.1-0.4,0-0.4h-1.2c-0.3,0-0.5,0.2-0.7,0.4l-1.3,1.6c-0.2,0.2-0.1,0.3,0.1,0.3
	H200.5z M187.7,40.8c0.3,0,0.5-0.2,0.7-0.3l1.3-1.6c0.2-0.2,0.1-0.4-0.1-0.4h-2.8c-0.3,0-0.5,0.2-0.7,0.4l-1.3,1.6
	c-0.2,0.2-0.2,0.3,0.1,0.3H187.7z M181.6,40.6c0.1,0.1,0.3,0.2,0.4,0.1c0,0,0.1-0.1,0.1-0.1l1.5-1.7c0.1-0.2,0.1-0.4-0.2-0.4h-3.2
	c-0.2,0-0.3,0.2-0.2,0.4L181.6,40.6z"/>
<path class="st1" d="M194.3,55c0-0.2,0-0.5,0-0.8c-0.3-4.2-1.6-8.3-3.7-12c-0.1-0.3-0.3-0.4-0.6-0.3c-0.1,0-0.1,0.1-0.2,0.1
	c-0.2,0-0.2,0.2-0.2,0.4c0,0,0.8,1,1.1,1.5c0.5,0.8,0.7,1.7,0.7,2.6c0,0.3,0,0.7-0.1,1c-0.6,2.1-2.1,3.9-4.2,4.8
	c-0.5,0.2-1.1,0.3-1.7,0.4c-1.2,0.3-2.5,0-3.6-0.8c-0.9-0.7-1.4-1.8-1.3-3c0-0.3,0.1-0.6,0.3-0.8v-0.1c0.8-1,1,1,2.9,1.3
	c0.3,0.1,0.7,0.1,1,0c0.3-0.1,0.6-0.3,0.8-0.6c0.3-0.3,0.4-0.6,0.5-1c0-0.2,0-0.5,0-0.7c-0.1-0.4-0.3-0.8-0.6-1.1
	c-1-0.8-2.6-1.4-3.1-2.7c-0.1-0.3-0.1-0.6,0-0.9c0.1-0.3,0.3-0.6,0.5-0.9c0-0.1,0.9-1,0.9-1l1.5-1.7c0.1-0.5-0.4-0.3-0.6-0.2
	c-1.1,1.1-1.7,2.6-3.1,3.4c-1.7,0.4-3.3,1.3-4.5,2.7c-1.9,1.4-3.8,2.7-5.9,3.8c-0.2,0.5-0.2,1,0,1.5c1,0.7,2.4,0.7,3.6,1
	c0.5,0.9,0.7,1.9,0.4,2.9c0.8,0.2,2.7-1.3,3.3-2.7c1,0.2,1.7,1,1.7,2c0.1,0.7-0.1,1.4-0.4,2c-0.7,1.2-1.8,2.2-3,2.9
	c0.6,0.3,1.2,0.7,1.8,1.1c0.3,0.1,1.2-2,1.7-2.1c0.4-0.1,2.3,1.3,2.7,1.3s1.5-1.7,2-1.6c0.5,0,1.8,2,2.1,2c0.4,0,2.1-1.7,2.6-1.6
	c0.4,0,1.2,1.6,1.5,1.7s0.9-0.8,3.1-1.2C194.3,57.4,194.3,56,194.3,55"/>
<path class="st1" d="M184.3,42.8c0.6-0.4,1.4-0.6,2.1-0.6c0.9,0.1,1.8,0.4,2.5,0.9c-1.1-0.3-2.2-0.1-3.2,0.5
	c-0.5,0.1-1.1-0.1-1.4-0.5C184.2,43.1,184.2,42.9,184.3,42.8 M190,45c-0.8-0.3-1.6-0.3-2.3,0.2c-0.4,0-0.8-0.2-1-0.5
	c-0.1-0.1-0.1-0.3,0-0.4c0.5-0.3,1-0.4,1.6-0.3C188.9,44.1,189.5,44.5,190,45 M190.4,46.7c-0.7-0.3-1.4-0.2-2,0.2
	c-0.3,0-0.5-0.3-0.6-0.6c0-0.2,0-0.2,0.1-0.3c0.4-0.2,0.8-0.2,1.2-0.1C189.6,46,190,46.3,190.4,46.7 M188.4,48.3
	c-0.2,0-0.4-0.3-0.4-0.5c0-0.3,0-0.2,0.1-0.2c0.3-0.1,0.6-0.1,0.9,0.1c0.4,0.2,0.7,0.4,0.9,0.8C189.4,48.1,188.8,48.1,188.4,48.3
	 M187.7,49.5c-0.2-0.1-0.1-0.3,0-0.5c0.1-0.2,0.1-0.1,0.1-0.1c0.3,0,0.5,0.2,0.6,0.4c0.2,0.3,0.3,0.6,0.3,0.9
	C188.6,49.8,188.2,49.6,187.7,49.5 M187.3,51.3c0-0.4-0.2-0.7-0.5-0.9c-0.1-0.2,0.1-0.3,0.2-0.4s0.1,0,0.2,0
	c0.2,0.1,0.3,0.3,0.3,0.6C187.5,50.8,187.4,51.1,187.3,51.3 M185.6,51.8c0.1-0.2,0-0.5-0.2-0.7c0-0.1,0.1-0.2,0.3-0.2
	c0.1,0,0.1,0,0.2,0c0.1,0.1,0.2,0.3,0.1,0.4C186,51.5,185.8,51.7,185.6,51.8 M184.5,51.7c-0.1,0.1-0.2,0.2-0.3,0.2
	c0.1-0.1,0.1-0.3,0-0.4c0-0.1,0.1-0.1,0.2,0c0,0,0.1,0,0.1,0.1C184.5,51.6,184.5,51.7,184.5,51.7 M183.2,51.5c-0.1,0-0.1,0-0.2,0
	c0.1,0,0.1-0.1,0.1-0.2c0,0,0.1,0,0.1,0S183.2,51.4,183.2,51.5 M183.5,41.4c-0.1,0.1-0.2,0.2-0.3,0.3c-0.2,0.2-0.3,0.5-0.4,0.8
	c-0.1,0.2-0.1,0.5,0,0.7c0.4,1.1,2.1,1.8,3,2.5c0.4,0.3,0.7,0.8,0.8,1.3c0.1,0.3,0.1,0.6,0,0.9c-0.1,0.4-0.3,0.8-0.6,1.1
	c-0.3,0.3-0.6,0.5-1,0.7c-0.4,0.1-0.8,0.1-1.1,0c-1-0.2-1.8-0.8-2.4-1.5l-0.2,0.2v0.1c-0.1,0.1-0.2,0.4-0.2,0.5
	c-0.1,0.7,0,1.4,0.4,2c0.2,0.3,0.4,0.5,0.7,0.8c1,0.7,2.1,0.9,3.3,0.6c0.5-0.1,1.1-0.2,1.6-0.4c1.9-0.8,3.4-2.5,3.9-4.5
	c0.1-0.3,0.1-0.6,0.1-0.9c0-0.9-0.2-1.7-0.7-2.4c-0.3-0.6-0.7-1.1-1.2-1.5c-0.2-0.3-0.5-0.4-0.7-0.6c0.2-0.5,0.8-0.3,1-0.7
	c-1.8-0.2-3.6-0.2-5.5-0.1C183.8,41.2,183.7,41.3,183.5,41.4"/>
<polygon class="st2" points="195.7,92.3 188.6,91.8 191.3,98.4 185.8,93.7 184.1,100.7 182.5,93.7 177,98.4 179.7,91.8 172.6,92.3 
	178.7,88.6 172.6,84.8 179.7,85.3 177,78.8 182.5,83.4 184.1,76.4 185.8,83.4 191.3,78.8 188.6,85.3 195.7,84.8 189.6,88.6 "/>
<path class="st2" d="M199,85c0,3.6-0.8,7.2-2.4,10.4c1.1-3.3,1.7-6.8,1.6-10.4V71.3h-28.2V85c-0.1,3.5,0.5,7.1,1.7,10.4
	c-1.6-3.2-2.5-6.8-2.4-10.4V70.7H199V85z"/>
<path class="st0" d="M212.8,97.4c-1.2-0.5-2.5-0.7-3.7-0.5c0.1-0.9,0.3-1.8,0.6-2.7c0.3-1,0.9-1.8,1.6-2.5c-1.9-0.4-3.9,0.3-5.1,1.8
	c-2.2,2.6-2.4,4.7-1.9,6.2c0.4,1.1,1,2.2,1.7,3.2c0.3,0.7,0.5,1.4,0.6,2.1c0,0,1-3.4,3.5-4.5c1.7-0.7,3.7-0.5,5.2,0.7
	C215.3,99.5,214.3,98,212.8,97.4"/>
<path class="st0" d="M203.1,102.6c-0.5-1.3-0.5-2.7,0-4c0,0-3.2,1-5.7,5.4c-1.6,2.8-2.4,5.6-3.7,7.1c-0.6,0.8-1.4,1.4-2.2,1.9
	c0,0,0.6-0.3,1.2-0.5c1.8-0.2,3.4-0.9,4.9-1.9c1.4-1,2.2-2.6,2.2-4.2c1.1,1.1,2.7,1.3,4,0.4c1-0.6,1.6-1.6,1.7-2.7
	C205.5,104.1,204.4,105.1,203.1,102.6"/>
<path class="st0" d="M214.4,80.7L214.4,80.7l-0.5-0.2c-2.6-1-3.1-2-5.4-3c-1.4-0.6-3.1-0.6-4.5-0.1c0.8,0.4,1.4,1,2,1.7
	c0.3,0.5,0.5,1,0.7,1.6c0.1,0.4,0.2,0.7,0.4,1c0.5,0.7,1.2,1.3,2.1,1.8c-1.2,0.5-2.3,1.1-3.3,1.9c-1.3,1-2,2.5-1.8,4.1
	c0.2,1.2,0.8,2.3,1.7,3.2c0.4-1.3,1.4-2.4,2.7-3c1.5-0.7,3.3-0.6,4.8,0.3c0,0,0.4,0.8,0,3c-0.1,1-0.4,1.9-1,2.7c2.1-0.4,4-1.7,5-3.7
	c1.2-2.5,1-4.8,1-7.5s1-3.8,1-3.8C217.6,81.3,215.9,81.3,214.4,80.7"/>
<path class="st0" d="M208.9,57.3c0.3,1.1,0.2,2.4-0.2,3.5c1.7-0.1,3.4-0.8,4.7-1.9c1.1-1,2.5-1.5,4-1.3c0.9,0.2,1.7,0.8,1.9,1.7
	c0.7-1.2,0.8-2.7,0.1-3.9c-0.7-1.2-3.1-1.5-3.1-1.5c0.2-0.4,0.4-0.9,0.4-1.3c0-1.3,0.3-2.5,0.7-3.7c0.4-1.3,1.3-2.4,2.4-3.2
	c-0.9-0.2-2-0.2-2.9,0.1c-1.3,0.4-2.8,1.8-3.9,3.1c-0.8,1.1-1.2,2.3-1.4,3.7c-0.1-0.7-0.5-1.3-1-1.8c-0.8-0.7-1.7-1.3-2.7-1.8
	c-0.7-0.4-1.2-1.1-1.4-1.8c-0.4,0.8-0.7,1.6-0.8,2.5c-0.2,1.3,0.1,2.6,0.9,3.7C207.7,54.4,208.4,55.8,208.9,57.3"/>
<path class="st0" d="M225.5,60c-2.5-3.3-5,0.8-5,0.8c1.1-0.2,2.3,0.2,3,1.1c1.3,2-0.9,4.8-0.9,4.8S228.4,63.8,225.5,60"/>
<path class="st0" d="M208.1,61.9c-1-0.6-1.7-1.6-1.9-2.8c-0.3-1.8-0.1-3.2-0.3-4.5c-0.2-1-0.6-1.9-1.1-2.8c0.1,1-0.2,2.1-0.6,3
	c-0.7,1.2-1.7,3.5-0.5,5.4C204.7,61.6,206.5,62.3,208.1,61.9"/>
<path class="st0" d="M219.8,47.1c0.3,1,0.2,2.1-0.2,3c-0.2,0.9-0.8,1.6-1.4,2.2c0.8,0.1,1.5,0.4,2,0.9c0.6,0.5,1,1.3,1.2,2.1
	c0.6-1.5,0.8-3.1,0.5-4.6C221.4,49.3,220.8,48.1,219.8,47.1"/>
<path class="st0" d="M213.2,79c0.8-3.2-0.5-9.1-3.3-8.9c-2.8,0.1-6.1,3.8-6.1,3.8C207.8,73.2,211.6,75.3,213.2,79"/>
<path class="st0" d="M219.9,68.8c0,0,1.1-0.2,2-2.1c0.5-1,0.7-2.2,0.4-3.3c-0.2,0.3-0.5,0.6-0.9,0.6c-0.7,0.1-1.4,0-2.6,0.2
	c-0.7,0.1-1.4,0.3-2.1,0.6c-0.3-1-0.2-2,0.4-2.9c0.5-0.7,1.2-1.2,1.9-1.5c-0.7-0.6-1.6-0.8-2.5-0.7c-1.8,0-3.6,0.6-5,1.7
	c-1.4,1-2.9,1.9-4.5,2.5c-0.9,0.4-2,0.5-3,0.3c0.3,0.7,0.8,1.3,1.5,1.7c1.1,0.4,2.2,0.7,3.3,0.9c2.7,0.7,4.8,2.7,5.7,5.3
	c0.7,2.5,0.7,5.1,0.1,7.5c1-0.3,1.9-0.9,2.6-1.7c0.7-0.9,1-1.9,0.9-3c0.7,0.4,1.4,0.8,2.2,1.2c1,0.4,1.2,2.4,1.2,2.4
	c1.9-1.6,2.7-4.1,2.1-6.4C223.1,70.5,221.7,69.1,219.9,68.8"/>
<path class="st0" d="M198.1,59.4c-0.3-0.4-3.7,1.4-3.7,1.4s-0.1-1.8-0.5-2.2c-1.3,0.1-2.4,0.7-3.3,1.7l0,0c-0.4-1-0.9-1.9-1.1-1.9
	c-0.5,0-2.6,1.8-2.6,1.8s-1.2-2.2-1.9-2.2c-0.3,0-1.4,1.2-1.9,1.9c-0.7-0.7-2.1-1.8-2.6-1.6c-0.3,0.1-1,1.5-1.4,2.5
	c-0.9-0.9-2-1.6-3.2-2c-0.3,0.8-0.5,1.6-0.5,2.5c0,0-1.9-1.8-3.2-1.9c-0.3,0.4,0.3,3,1.7,4.2c-0.3-0.8-0.5-1.6-0.5-2.4
	c0.7-0.3,2.3,0.6,2.3,0.6s0.3-1.3,1-1.6c1,0.3,1.9,0.7,2.7,1.3c0.4-0.7,0.9-1.4,1.5-1.9c1-0.2,2.5,1,2.5,1s1.1-1.3,1.9-1.3
	c0.7,0.4,1.3,0.9,1.8,1.5c0.8-0.5,1.6-1,2.4-1.3c0.6,0.3,1.2,1.6,1.2,1.6s1.9-1.3,2.9-1.1c0.3,0.4,0.5,0.9,0.7,1.4
	c1-0.4,2-0.6,3-0.7c-0.2,1-0.6,1.9-1.1,2.8C196.9,62.8,198.8,60.1,198.1,59.4"/>
<path class="st0" d="M184.7,63.9c0.8,0.1,1.2-3.2,0.3-3.3S184,63.8,184.7,63.9"/>
<path class="st0" d="M187.7,64c0.8,0.3,2-2.7,1.2-3C188.1,60.7,187,63.7,187.7,64"/>
<path class="st0" d="M180.8,61.3c0,1.1,0.6,2.9,1.2,2.7c0.4-0.1,0.2-2.6-0.7-3.2C181,60.7,180.8,61.1,180.8,61.3"/>
<path class="st0" d="M190.9,64.1c0.7,0.4,2.6-2.3,1.7-2.8C192,60.9,190.1,63.6,190.9,64.1"/>
<path class="st0" d="M176.9,61.5c-0.1,1.1,1,2.8,1.6,2.6c0.4-0.1-0.2-2.5-1.2-2.8C177,61.2,176.9,61.4,176.9,61.5"/>
<path class="st0" d="M193.7,63.9c0.6,0.4,1.9-1.4,1.6-1.8S193.3,63.6,193.7,63.9"/>
<path class="st0" d="M175.5,64.2c0.5-0.3-0.4-2-0.9-1.8S175,64.4,175.5,64.2"/>
<path class="st1" d="M182.6,64.8c-0.2,0-0.4,0.1-0.3,0.3l0.8,2c0.1,0.2,0.3,0.3,0.5,0.3h3.4c0.2,0,0.4-0.2,0.3-0.3l-0.8-2
	c-0.1-0.2-0.3-0.3-0.5-0.3H182.6z"/>
<path class="st1" d="M187.8,65.2c-0.2,0-0.2,0.1-0.2,0.2l0.6,1.4c0.1,0.1,0.2,0.2,0.4,0.2h2.4c0.2,0,0.2-0.1,0.2-0.2l-0.6-1.4
	c-0.1-0.1-0.2-0.2-0.4-0.2H187.8z"/>
<path class="st1" d="M191.8,65.3c-0.1,0-0.2,0.1-0.1,0.2l0.4,1c0.1,0.1,0.2,0.2,0.3,0.2h1.6c0.1,0,0.2-0.1,0.1-0.2l-0.4-1
	c-0.1-0.1-0.2-0.2-0.3-0.2H191.8z"/>
<path class="st1" d="M194.8,65.4c-0.1,0-0.1,0-0.1,0.1l0.3,0.7c0,0.1,0.1,0.1,0.2,0.1h1.2c0,0,0.1,0,0.1-0.1c0,0,0,0,0,0l-0.3-0.7
	c0-0.1-0.1-0.1-0.2-0.1H194.8z"/>
<path class="st1" d="M181.8,67.1c0.2,0,0.2-0.1,0.2-0.2l-0.6-1.4c-0.1-0.1-0.2-0.2-0.4-0.2h-2.4c-0.2,0-0.2,0.1-0.2,0.2l0.6,1.4
	c0.1,0.1,0.2,0.2,0.4,0.2H181.8z"/>
<path class="st1" d="M177.8,66.9c0.1,0,0.2-0.1,0.1-0.2l-0.4-1c-0.1-0.1-0.2-0.2-0.3-0.2h-1.6c-0.1,0-0.2,0.1-0.2,0.2l0.4,1
	c0.1,0.1,0.2,0.2,0.3,0.2H177.8z"/>
<path class="st1" d="M174.8,66.8c0.1,0,0.1-0.1,0.1-0.1l-0.3-0.7c0-0.1-0.1-0.1-0.2-0.1h-1.2c-0.1,0-0.1,0-0.1,0.1l0.3,0.7
	c0,0.1,0.1,0.1,0.2,0.1L174.8,66.8z"/>
<polygon class="st3" points="184.1,88.6 185.2,85.2 184.1,78.8 "/>
<polygon class="st0" points="183,85.2 184.1,88.6 184.1,78.8 "/>
<polygon class="st3" points="183.1,91.9 184.1,98.3 184.1,88.6 "/>
<polygon class="st0" points="184.1,98.3 185.3,91.9 184.1,88.6 "/>
<polygon class="st3" points="178.4,80.6 183,85.2 184.1,88.6 "/>
<polygon class="st0" points="181.3,86.5 178.4,80.6 184.1,88.6 "/>
<polygon class="st3" points="189.9,96.5 185.3,91.9 184.1,88.6 "/>
<polygon class="st0" points="187,90.6 189.9,96.5 184.1,88.6 "/>
<polygon class="st3" points="174.9,85.5 181.3,86.5 184.1,88.6 "/>
<polygon class="st0" points="180.6,88.6 174.9,85.5 184.1,88.6 "/>
<polygon class="st3" points="193.4,91.6 187,90.6 184.1,88.6 "/>
<polygon class="st0" points="187.7,88.6 193.4,91.6 184.1,88.6 "/>
<polygon class="st3" points="174.9,91.6 180.6,88.6 184.1,88.6 "/>
<polygon class="st0" points="181.3,90.7 174.8,91.6 184.1,88.6 "/>
<polygon class="st3" points="193.4,85.5 187.7,88.6 184.1,88.6 "/>
<polygon class="st0" points="187,86.4 193.4,85.5 184.1,88.6 "/>
<polygon class="st3" points="178.4,96.5 181.3,90.7 184.1,88.6 "/>
<polygon class="st0" points="183.1,91.9 178.4,96.5 184.1,88.6 "/>
<polygon class="st3" points="189.9,80.7 187,86.4 184.1,88.6 "/>
<polygon class="st0" points="185.2,85.2 189.9,80.7 184.1,88.6 "/>
<path class="st1" d="M111.6,144.2L111.6,144.2l-0.8,11.3c-0.1,2.1-0.1,3.1,2.6,3.2v1.3h-7.1v-1.2c2.5,0,2.5-0.7,2.7-3.4l0.7-11.5
	c0.1-1.6,0-2.3-2.1-2.4v-1.2h6.7l6.2,13.4l5.9-13.4h6.8v1.2c-2.3,0.1-2.4,0.1-2.3,2.4l0.8,11.7c0.2,2.7,0.3,3,2.8,3.2v1.2h-10v-1.2
	h0.5c1.3,0,2.5,0,2.5-2.1c0-0.5,0-1-0.1-1.5l-0.7-11.3h-0.1l-7.1,16.1h-0.8L111.6,144.2z"/>
<path class="st1" d="M150.4,143.4l-2.7,7.4h5.6L150.4,143.4z M147.1,152.6l-1.3,3.7c-0.6,1.6-0.5,2.4,2.5,2.4h0.4v1.3h-8.4v-1.2h0.5
	c1.5,0,2.3-0.7,3.1-2.9l5.5-15.2l-0.4-0.9h4.7l6.4,16.1c0.8,2.1,1.5,2.7,3.2,2.9v1.3h-10.3v-1.2h1.1c1.9,0,2.2-0.9,1.6-2.4l-1.5-3.7
	L147.1,152.6z"/>
<path class="st1" d="M170.1,154.1h1.2c1.1,3.1,2.9,4.8,5.4,4.8c2.1,0,3.7-1.3,3.7-3.1c0-4.7-10.2-4.6-10.2-10.9
	c0-3.1,2.7-5.2,6.5-5.2c1.6,0.1,3.3,0.4,4.8,0.8c0.3,0,0.5-0.1,0.7-0.3h0.7l0.6,5.2h-1.3c-0.5-2.4-2.7-4.2-5.2-4.3
	c-1.8,0-3.1,1-3.1,2.2c0,2.9,5.3,3.5,8.8,7c1.2,1.1,1.8,2.6,1.8,4.2c0,3.3-3,5.9-6.8,5.9c-2.5,0-4.9-1-5.4-1c-0.3,0-0.6,0.2-0.7,0.5
	h-0.8L170.1,154.1z"/>
<path class="st1" d="M192.8,154.1h1.2c1,3.1,2.9,4.8,5.4,4.8c2.1,0,3.7-1.3,3.7-3.1c0-4.7-10.2-4.6-10.2-10.9c0-3.1,2.7-5.2,6.5-5.2
	c1.6,0.1,3.3,0.4,4.8,0.8c0.3,0,0.5-0.1,0.7-0.3h0.7l0.6,5.2H205c-0.5-2.4-2.7-4.2-5.2-4.3c-1.8,0-3.1,1-3.1,2.2
	c0,2.9,5.3,3.5,8.8,7c1.2,1.1,1.8,2.6,1.8,4.2c0,3.3-3,5.9-6.8,5.9c-2.5,0-4.9-1-5.4-1c-0.3,0-0.6,0.2-0.7,0.5h-0.8L192.8,154.1z"/>
<path class="st1" d="M229.4,141.9h-7v7.2h5.1c1.8,0,2.4-0.6,2.4-2.3h1.3v6.3h-1.3c0-1.7-0.4-2.3-2.9-2.3h-4.6v5.7
	c0,1.4,0.2,1.7,1.2,1.7h5.3c2.1,0,3.1-0.6,3.7-3.2h1.2l-0.4,5h-19.1v-1.2h1.3c1.8,0,2.5-0.7,2.5-2.3v-12.7c0-1.7-0.6-2.3-2.8-2.3
	h-0.3v-1.2h17.5l0.3,4.6h-1.2C231.2,142.6,230.8,141.9,229.4,141.9"/>
<path class="st1" d="M253.6,156.4c0,1.5,0.5,2.4,2.8,2.4h0.5v1.3H246v-1.2h0.8c1.9,0,2.4-0.9,2.4-2.3V152l-6.8-9.1
	c-0.6-1.1-1.7-1.7-2.9-1.5h-0.2v-1.2h10.3v1.2h-0.4c-1.9,0-2.1,0.8-1.4,1.6l5.1,6.7l3.7-5.8c0.8-1.3,1.1-2.6-1.1-2.6H255v-1.2h7.5
	v1.2c-1.9,0.1-2.4,0.5-3.5,2.2l-5.4,8.4V156.4z"/>
<path class="st1" d="M115.5,168.7h5.2v0.8h-0.1c-1.6,0-1.8,0.7-1.8,1.7v5c0,4.5-3.2,5.3-5.6,5.3c-3.6,0-5.9-1.6-5.9-4.6v-6
	c0-1-0.3-1.4-1.4-1.4h-0.3v-0.8h6.3v0.8h-0.3c-0.8,0-1.4,0.4-1.4,1.4v6c0,2.4,1.8,3.3,3.6,3.3c2.6,0,3.9-1.5,3.9-3.7v-4.9
	c0-1.4-0.4-2.1-1.7-2.1h-0.4V168.7z"/>
<path class="st1" d="M127.2,178.8c0,1.2,0.4,1.6,2,1.6v0.8h-4.9v-0.8h0.1c1.2,0,1.5-0.4,1.5-1.3v-9.2c-0.5-0.3-1-0.5-1.6-0.4v-0.8
	h4.1l8.2,8.6v-6.1c0-1.4-0.3-1.7-1.9-1.7h-0.2v-0.8h5.2v0.8h-0.2c-1.2,0-1.6,0.3-1.6,1v10.7h-1.1l-9.6-10V178.8z"/>
<path class="st1" d="M143.6,168.7h6.4v0.8h-0.3c-1.1,0-1.5,0.5-1.5,1.5v7.9c0,1,0.3,1.5,1.6,1.5h0.3v0.8h-6.4v-0.8h0.3
	c1.1,0,1.5-0.5,1.5-1.4v-8c0-1-0.4-1.5-1.5-1.5h-0.3V168.7z"/>
<path class="st1" d="M155.8,171.2c-0.7-1.4-0.9-1.7-2.1-1.7h-0.1v-0.8h7v0.8h-0.3c-1.7,0-2,0.6-1.4,1.7l3.1,6.7l3.1-7.3
	c0.3-0.7-0.2-1.1-1.3-1.1h-0.4v-0.8h5.1v0.8h-0.1c-1.2,0-1.6,0.5-2.3,2.1l-4.2,9.9h-1.3L155.8,171.2z"/>
<path class="st1" d="M181,169.8h-4.4v4.5h3.2c1.1,0,1.5-0.4,1.5-1.4h0.8v4h-0.8c0-1.1-0.3-1.4-1.8-1.4h-3v3.6c0,0.9,0.2,1,0.8,1h3.4
	c1.3,0,1.9-0.4,2.3-2h0.8l-0.2,3.1h-12.1v-0.8h0.8c1.2,0,1.6-0.5,1.6-1.4v-8c0-1.1-0.3-1.5-1.7-1.5h-0.2v-0.8h11l0.2,2.9h-0.8
	C182.1,170.2,181.9,169.8,181,169.8"/>
<path class="st1" d="M192.5,175h0.8c2.4,0,3.8-0.7,3.8-2.9s-1.6-2.9-3.6-2.9h-1L192.5,175z M192.5,178.9c0,1,0.4,1.5,1.6,1.5h0.6
	v0.8h-7v-0.8h0.3c1.2,0,1.7-0.3,1.7-1.5V171c0-1-0.3-1.5-1.6-1.5h-0.4v-0.8l2.6-0.2c1.1-0.1,2.6-0.1,3.3-0.1c3,0,4.6,0.4,5.6,1.4
	c0.6,0.6,1,1.4,1,2.3c0,1.5-1.1,2.7-3,3.2c1.3,1.1,2,2.7,3.5,4.1c0.7,0.8,1.6,1.2,2.6,1.2v0.8c-0.4,0-0.6,0-1.2,0
	c-2.5,0-3.5-0.4-4.4-1.3s-2.2-3.1-3.4-4.2h-1.6L192.5,178.9z"/>
<path class="st1" d="M207.1,177.5h0.8c0.7,2,1.8,3,3.4,3c1.2,0.1,2.2-0.7,2.3-1.9c0,0,0-0.1,0-0.1c0-3-6.4-2.9-6.4-6.9
	c0-1.9,1.7-3.3,4.1-3.3c1,0.1,2,0.2,3,0.5c0.2,0,0.3-0.1,0.4-0.2h0.4l0.4,3.2h-0.8c-0.3-1.5-1.7-2.7-3.3-2.7c-1.1,0-2,0.6-2,1.4
	c0,1.8,3.3,2.2,5.6,4.4c0.7,0.7,1.1,1.6,1.1,2.6c-0.1,2.2-2,3.9-4.3,3.7c0,0,0,0,0,0c-1.2-0.1-2.3-0.3-3.4-0.6
	c-0.2,0-0.3,0.1-0.4,0.3h-0.5L207.1,177.5z"/>
<path class="st1" d="M220.7,168.7h6.3v0.8h-0.4c-1.1,0-1.5,0.5-1.5,1.5v7.9c0,1,0.3,1.5,1.6,1.5h0.3v0.8h-6.4v-0.8h0.3
	c1.1,0,1.5-0.5,1.5-1.4v-8c0-1-0.4-1.5-1.5-1.5h-0.3L220.7,168.7z"/>
<path class="st1" d="M239.2,178.9c0,1,0.3,1.5,1.7,1.5h0.5v0.8h-7.2v-0.8h0.7c1.1,0,1.5-0.4,1.5-1.5v-9.1h-2.4
	c-1.5,0-1.8,0.2-2.2,2.4h-0.8l0.4-3.8h0.6c0.1,0.1,0.2,0.2,0.4,0.3c0.2,0,0.4,0.1,0.6,0.1h9.5c0.4,0.1,0.8-0.1,1-0.3h0.6l0.4,3.8
	h-0.8c-0.4-2.1-0.6-2.4-2.2-2.4h-2.4L239.2,178.9z"/>
<path class="st1" d="M257.3,178.9c0,1,0.3,1.5,1.8,1.5h0.3v0.8h-6.8v-0.8h0.5c1.2,0,1.5-0.5,1.5-1.4v-2.8l-4.3-5.7
	c-0.3-0.7-1.1-1-1.8-0.9h-0.1v-0.8h6.5v0.8h-0.2c-1.2,0-1.3,0.5-0.9,1l3.2,4.2l2.3-3.6c0.5-0.8,0.7-1.6-0.7-1.6h-0.2v-0.8h4.7v0.8
	c-1.2,0.1-1.5,0.3-2.2,1.4l-3.4,5.3L257.3,178.9z"/>
<path class="st1" d="M109.6,196.6c0,0.4,0.1,0.7,0.8,0.7h0.2v0.4h-3.2v-0.4h0.3c0.3,0,0.6-0.2,0.7-0.5c0-0.1,0-0.1,0-0.2v-4.3h-1.1
	c-0.7,0-0.8,0.1-1,1.1h-0.3l0.2-1.8h0.3c0.1,0,0.1,0.1,0.2,0.1c0,0.1,0.1,0.1,0.2,0.1h4.3c0.2,0,0.3,0,0.5-0.2h0.3l0.2,1.8h-0.4
	c-0.2-1-0.3-1.1-1-1.1h-1V196.6z"/>
<path class="st1" d="M117.3,192.3h-2v2.1h1.5c0.5,0,0.7-0.2,0.7-0.7h0.4v1.9h-0.4c0-0.6-0.1-0.8-0.8-0.8h-1.3v1.7
	c0,0.4,0.1,0.5,0.3,0.5h1.5c0.6,0,0.8-0.2,1-1h0.3l-0.1,1.5H113v-0.4h0.4c0.3,0.1,0.7-0.2,0.7-0.5c0-0.1,0-0.1,0-0.2v-3.8
	c0-0.5-0.2-0.7-0.8-0.7h-0.1v-0.4h5l0.1,1.4h-0.3C117.8,192.5,117.7,192.3,117.3,192.3"/>
<path class="st1" d="M125.6,196.6c0,0.5,0.2,0.7,0.7,0.7h0.1v0.4h-2.9v-0.4h0.2c0.5,0,0.7-0.2,0.7-0.7v-3.7c0-0.6-0.2-0.7-0.7-0.7
	h-0.2v-0.4h2.9v0.4h-0.1c-0.6,0-0.7,0.2-0.7,0.8v1.7c0.5-0.1,0.9-0.4,1.2-0.8c0.4-0.4,0.7-0.9,0.9-1.4c0-0.2-0.1-0.3-0.5-0.3H127
	v-0.4h2.4v0.4c-0.4-0.1-0.7,0.1-1,0.3c-0.4,0.7-0.9,1.3-1.4,1.9c0.4,0.3,0.7,0.6,0.9,1l0.8,1.1c0.5,0.6,0.8,0.9,1.4,0.9v0.4H127
	v-0.4c0.4,0,0.6-0.1,0.6-0.2c-0.4-0.7-0.8-1.3-1.4-1.8c-0.3-0.3-0.4-0.3-0.6-0.3L125.6,196.6z"/>
<path class="st1" d="M135.3,191.8h2.3v0.4h-0.1c-0.7,0-0.8,0.3-0.8,0.8v2.4c0.1,1.3-0.8,2.4-2.1,2.5c-0.2,0-0.3,0-0.5,0
	c-1.6,0-2.7-0.8-2.7-2.2v-2.9c0-0.5-0.1-0.6-0.6-0.6h-0.2v-0.4h2.8v0.4h-0.2c-0.4,0-0.7,0.1-0.7,0.6v2.9c0,0.8,0.6,1.5,1.5,1.6
	c0.1,0,0.1,0,0.2,0c0.9,0.1,1.7-0.6,1.8-1.5c0-0.1,0-0.2,0-0.3v-2.3c0-0.6-0.2-0.9-0.8-0.9h-0.1V191.8z"/>
<path class="st1" d="M140,196.5c0,0.5,0.2,0.8,0.9,0.8v0.4h-2.2v-0.4l0,0c0.6,0,0.7-0.2,0.7-0.6v-4.4c-0.2-0.1-0.5-0.2-0.7-0.2v-0.4
	h1.8l3.7,4v-2.9c0-0.6-0.1-0.8-0.8-0.8h-0.1v-0.4h2.3v0.4h-0.1c-0.5,0-0.8,0.1-0.8,0.4v5h-0.5l-4.3-4.7V196.5z"/>
<path class="st1" d="M150.8,192.3h-2v2.1h1.5c0.5,0,0.7-0.2,0.7-0.7h0.4v1.9H151c0-0.6-0.1-0.8-0.8-0.8h-1.4v1.7
	c0,0.4,0.1,0.5,0.3,0.5h1.5c0.6,0,0.9-0.2,1-1h0.4l-0.1,1.5h-5.4v-0.4h0.4c0.5,0,0.7-0.2,0.7-0.7v-3.8c0-0.5-0.1-0.7-0.8-0.7h-0.1
	v-0.4h5l0.1,1.4h-0.4C151.3,192.5,151.3,192.3,150.8,192.3"/>
<path class="st1" d="M154.6,196.5c0,0.5,0.2,0.8,0.9,0.8v0.4h-2.2v-0.4h0.1c0.5,0,0.7-0.2,0.7-0.6v-4.4c-0.2-0.1-0.5-0.2-0.7-0.2
	v-0.4h1.9l3.7,4v-2.9c0-0.6-0.1-0.8-0.8-0.8h-0.1v-0.4h2.3v0.4h-0.1c-0.6,0-0.8,0.1-0.8,0.4v5h-0.5l-4.3-4.8V196.5z"/>
<path class="st1" d="M168,195.2c-0.5,0-0.6,0.1-0.6,0.6v1.4c-0.7,0.4-1.5,0.6-2.3,0.6c-1.7,0.1-3.2-1.2-3.3-2.9s1.2-3.2,2.9-3.3
	c0.1,0,0.2,0,0.3,0c0.7,0.1,1.3,0.2,2,0.3c0.1,0,0.2-0.1,0.3-0.1h0.2v1.7H167c-0.2-0.9-1-1.5-1.9-1.5c-1.3,0-2.1,1.1-2.1,2.6
	s0.9,2.8,2.1,2.8c0.4,0,0.7-0.1,1-0.3v-1.2c0-0.5-0.2-0.6-1.1-0.6v-0.4h3L168,195.2z"/>
<path class="st1" d="M171.9,192.8l-0.8,2.1h1.6L171.9,192.8z M171,195.5l-0.4,1.1c-0.2,0.4-0.2,0.7,0.7,0.7h0.1v0.4H169v-0.4h0.2
	c0.4,0,0.6-0.2,0.9-0.9l1.5-4.5l-0.1-0.2h1.4l1.8,4.8c0.2,0.6,0.5,0.8,0.9,0.9v0.4h-2.9v-0.4h0.4c0.5,0,0.6-0.2,0.5-0.7l-0.5-1.1
	H171z"/>
<path class="st1" d="M182.4,196.6c0,0.5,0.2,0.7,0.7,0.7h0.1v0.4h-2.9v-0.4h0.2c0.5,0,0.7-0.2,0.7-0.7v-3.7c0-0.6-0.2-0.7-0.7-0.7
	h-0.2v-0.4h2.9v0.4h-0.2c-0.6,0-0.7,0.2-0.7,0.8v1.7c0.5-0.1,0.9-0.4,1.2-0.8c0.4-0.4,0.7-0.9,0.9-1.4c0-0.2-0.2-0.3-0.5-0.3h-0.1
	v-0.4h2.4v0.4c-0.4-0.1-0.7,0.1-1,0.3c-0.4,0.7-0.9,1.3-1.4,1.9c0.4,0.3,0.7,0.6,0.9,1l0.8,1.1c0.5,0.6,0.8,0.9,1.4,0.9v0.4h-3.1
	v-0.4c0.4,0,0.6-0.1,0.6-0.2c-0.4-0.7-0.8-1.3-1.4-1.8c-0.3-0.3-0.4-0.3-0.6-0.3V196.6z"/>
<path class="st1" d="M187.8,191.8h2.9v0.4h-0.2c-0.5,0-0.7,0.2-0.7,0.7v3.7c0,0.4,0.2,0.7,0.7,0.7h0.1v0.4h-2.9v-0.4h0.1
	c0.5,0,0.6-0.2,0.6-0.7v-3.7c0-0.5-0.2-0.7-0.7-0.7h-0.1V191.8z"/>
<path class="st1" d="M197.6,194.7c0.2,0.1,0.4,0.1,0.7,0.1c0.8,0,1.3-0.6,1.3-1.5c0.1-0.7-0.4-1.3-1.1-1.4c-0.1,0-0.1,0-0.2,0
	c-0.2,0-0.4,0.1-0.6,0.1V194.7z M197.6,196.6c0,0.5,0.2,0.7,0.8,0.7h0.2v0.4h-3v-0.4h0.2c0.5,0,0.6-0.1,0.6-0.6v-4
	c0-0.4-0.1-0.5-0.6-0.5h-0.2v-0.4c0.5-0.1,1-0.1,1.4-0.1h1.5c1.7,0,2.5,0.8,2.5,1.9s-0.9,1.7-2.3,1.7c-0.3,0-0.6,0-1,0L197.6,196.6z
	"/>
<path class="st1" d="M206.5,191.8h2.4v0.4h-0.1c-0.7,0-0.8,0.3-0.8,0.8v2.4c0.1,1.3-0.9,2.4-2.2,2.5c-0.1,0-0.3,0-0.4,0
	c-1.6,0-2.6-0.8-2.6-2.2v-2.9c0-0.5-0.2-0.6-0.6-0.6H202v-0.4h2.8v0.4h-0.1c-0.3,0-0.6,0.2-0.6,0.5c0,0,0,0.1,0,0.1v2.9
	c0,0.8,0.6,1.5,1.4,1.6c0.1,0,0.2,0,0.3,0c0.9,0,1.7-0.6,1.7-1.5c0-0.1,0-0.2,0-0.3v-2.3c0-0.6-0.2-0.9-0.7-0.9h-0.2V191.8z"/>
<path class="st1" d="M212,194.7h0.3c1.1,0,1.7-0.3,1.7-1.4c0-0.8-0.6-1.4-1.4-1.4c-0.1,0-0.1,0-0.2,0H212V194.7z M212,196.6
	c0,0.4,0.2,0.7,0.6,0.7h0.3v0.4h-3.2v-0.4h0.1c0.6,0,0.8-0.1,0.8-0.7v-3.7c0-0.4-0.1-0.7-0.7-0.7h-0.2v-0.4c0.4-0.1,0.7-0.1,1.1-0.1
	c0.5,0,1.2,0,1.5,0c0.9-0.1,1.8,0.1,2.4,0.6c0.3,0.3,0.5,0.7,0.5,1.1c0,0.7-0.5,1.2-1.4,1.5c0.6,0.6,1.1,1.2,1.6,1.9
	c0.3,0.3,0.7,0.5,1.2,0.5v0.4c-0.2,0-0.4,0-0.6,0c-0.7,0.1-1.5-0.1-2-0.6c-0.5-0.7-1-1.4-1.6-2H212V196.6z"/>
<path class="st1" d="M221.6,192.3h-2v2.1h1.5c0.4,0,0.6-0.2,0.6-0.7h0.4v1.9h-0.4c0-0.6-0.1-0.8-0.8-0.8h-1.4v1.7
	c0,0.4,0.1,0.5,0.3,0.5h1.5c0.6,0,0.9-0.2,1.1-1h0.3l-0.1,1.5h-5.4v-0.4h0.4c0.5,0,0.7-0.2,0.7-0.7v-3.8c0-0.5-0.2-0.7-0.8-0.7h-0.1
	v-0.4h5v1.4h-0.3C222.1,192.5,222,192.3,221.6,192.3"/>
<path class="st1" d="M228.5,197.3c0.4,0,0.6-0.2,0.6-0.7v-1.7h-2.9v1.7c0,0.4,0.2,0.7,0.7,0.7h0.1v0.4h-2.9v-0.4h0.2
	c0.3,0,0.6-0.2,0.7-0.5c0-0.1,0-0.1,0-0.2v-3.8c0-0.5-0.2-0.7-0.7-0.7h-0.1v-0.4h2.9v0.4h-0.1c-0.5,0-0.7,0.1-0.7,0.7v1.5h2.9v-1.4
	c0-0.6-0.2-0.7-0.7-0.7h-0.1v-0.4h2.9v0.4h-0.2c-0.4,0-0.7,0.1-0.7,0.7v3.8c0,0.4,0.2,0.7,0.7,0.7h0.2v0.4h-2.9v-0.4H228.5z"/>
<path class="st1" d="M236.8,191.8h2.3v0.4c-0.8,0-0.9,0.3-0.9,0.8v2.4c0.1,1.3-0.8,2.4-2,2.5c-0.2,0-0.3,0-0.5,0
	c-1.7,0-2.6-0.8-2.6-2.2v-2.9c0-0.5-0.1-0.6-0.6-0.6h-0.2v-0.4h2.8v0.4h-0.1c-0.4,0-0.6,0.1-0.6,0.6v2.9c-0.1,0.8,0.5,1.5,1.3,1.6
	c0.1,0,0.2,0,0.2,0c0.9,0.1,1.7-0.6,1.8-1.5c0-0.1,0-0.2,0-0.3v-2.3c0-0.6-0.2-0.9-0.8-0.9h-0.1V191.8z"/>
<path class="st1" d="M242.1,194.7h0.4c1.1,0,1.7-0.3,1.7-1.4s-0.8-1.4-1.6-1.4h-0.5L242.1,194.7z M242.1,196.6
	c0,0.4,0.3,0.7,0.8,0.7h0.3v0.4H240v-0.4h0.2c0.6,0,0.8-0.1,0.8-0.7v-3.7c0-0.4-0.1-0.7-0.7-0.7H240v-0.4c0.4-0.1,0.8-0.1,1.2-0.1
	h1.4c0.9-0.1,1.8,0.1,2.5,0.6c0.3,0.3,0.5,0.7,0.4,1.1c0,0.7-0.6,1.2-1.4,1.5c0.6,0.6,1.1,1.2,1.5,1.9c0.3,0.4,0.8,0.6,1.2,0.5v0.4
	c-0.2,0-0.4,0-0.6,0c-0.7,0.1-1.5-0.1-2-0.6c-0.5-0.7-1-1.4-1.5-2h-0.8V196.6z"/>
<path class="st1" d="M251.6,197.3c1.2,0,1.8-1.1,1.8-2.4s-0.8-2.9-2.1-2.9c-1.1,0-1.8,0.9-1.8,2.3
	C249.5,196.1,250.3,197.3,251.6,197.3 M251.5,191.5c1.7-0.1,3.1,1.1,3.2,2.8c0,0.1,0,0.2,0,0.2c0,1.8-1.4,3.2-3.2,3.2
	c-0.1,0-0.2,0-0.2,0c-1.7,0.1-3.1-1.1-3.2-2.8c0-0.1,0-0.2,0-0.2c0-1.8,1.4-3.2,3.2-3.2C251.3,191.5,251.4,191.5,251.5,191.5"/>
<path class="st1" d="M259,192.8l-0.8,2.1h1.5L259,192.8z M258.1,195.5l-0.5,1.1c-0.2,0.4-0.2,0.7,0.8,0.7h0.1v0.4h-2.4v-0.4h0.1
	c0.5,0,0.6-0.2,0.9-0.9l1.5-4.5l-0.1-0.2h1.4l1.8,4.8c0.2,0.6,0.4,0.8,0.9,0.9v0.4h-3v-0.4h0.3c0.6,0,0.7-0.2,0.4-0.7l-0.4-1.1
	L258.1,195.5z"/>
<line class="st4" x1="203.4" y1="190.3" x2="207.9" y2="190.3"/>
<path class="st1" d="M106.5,211.9v4.7c0,0.5,0.1,1,0.3,1.4c0.4,0.5,1.1,0.8,1.7,0.7c1,0.1,1.9-0.6,2.1-1.6c0-0.2,0-0.3,0-0.5v-4.7h1
	v4.7c0,0.7-0.2,1.4-0.6,2c-0.6,0.7-1.5,1.1-2.5,1c-1,0-2-0.4-2.7-1.2c-0.4-0.6-0.5-1.2-0.4-1.9v-4.6L106.5,211.9z"/>
<polygon class="st1" points="113,211.9 114.5,211.9 118.2,218.1 118.2,211.9 119.2,211.9 119.2,219.4 117.8,219.4 114,213 
	114,219.4 113,219.4 "/>
<rect x="121.1" y="211.9" class="st1" width="1" height="7.6"/>
<polygon class="st1" points="127.1,219.4 125.9,219.4 123.2,211.9 124.4,211.9 126.5,218.3 128.8,211.9 129.9,211.9 "/>
<polygon class="st1" points="130.9,211.9 135.6,211.9 135.6,212.8 131.9,212.8 131.9,215.1 135.5,215.1 135.5,216 131.9,216 
	131.9,218.5 135.7,218.5 135.7,219.4 130.9,219.4 "/>
<path class="st1" d="M138.3,215.1h1.7c0.3,0,0.7,0,1-0.2c0.3-0.2,0.5-0.6,0.5-1c0-1.2-1.1-1.2-1.5-1.2h-1.7V215.1z M137.3,211.9h2.7
	c0.6,0,1.2,0.1,1.7,0.4c0.5,0.3,0.9,0.9,0.8,1.6c0,0.9-0.6,1.6-1.4,1.8c0.7,0.2,1.1,0.5,1.2,1.5c0.1,0.8,0.2,1.6,0.5,2.4h-1.1
	c-0.2-0.7-0.3-1.3-0.3-2c-0.1-1.1-0.4-1.4-1.7-1.4h-1.3v3.4h-1L137.3,211.9z"/>
<path class="st1" d="M145,217.2c0,0.5,0.1,1.5,1.8,1.5c1.6,0,1.8-1,1.8-1.4c0-0.9-0.7-1-1.7-1.3c-0.7-0.1-1.4-0.3-2.1-0.7
	c-0.5-0.3-0.8-0.9-0.8-1.5c0-1.6,1.5-2.2,2.9-2.2c0.8,0,1.6,0.2,2.1,0.8c0.3,0.4,0.5,0.8,0.5,1.3h-1.1c-0.1-0.9-0.9-1.1-1.6-1.1
	c-1,0-1.7,0.5-1.7,1.2s0.4,0.9,1.4,1.1c0.9,0.1,1.7,0.4,2.4,0.8c0.5,0.3,0.8,0.9,0.8,1.5c0,1.4-1,2.4-3,2.4
	c-0.9,0.1-1.7-0.3-2.3-0.9c-0.3-0.4-0.5-1-0.4-1.5H145z"/>
<rect x="151.1" y="211.9" class="st1" width="1.1" height="7.6"/>
<polygon class="st1" points="155.8,219.4 155.8,212.8 153.3,212.8 153.3,211.9 159.4,211.9 159.4,212.8 156.9,212.8 156.9,219.4 "/>
<polygon class="st1" points="162.9,216.5 159.9,211.9 161.3,211.9 163.5,215.6 165.8,211.9 166.9,211.9 164,216.5 164,219.4 
	162.9,219.4 "/>
<path class="st1" d="M172,218c0.4,0.5,1,0.7,1.7,0.7c0.6,0,1.3-0.2,1.7-0.7c0.5-0.7,0.7-1.6,0.7-2.5c0-1.7-0.6-3-2.3-3
	c-1.9,0-2.4,1.5-2.4,3.1C171.3,216.5,171.5,217.3,172,218 M171.2,212.6c0.7-0.7,1.6-1,2.5-1c2.1,0,3.4,1.3,3.4,3.9c0,2-0.8,4-3.5,4
	s-3.4-1.8-3.4-3.9C170.2,214.6,170.5,213.5,171.2,212.6"/>
<polygon class="st1" points="178.6,211.9 183.1,211.9 183.1,212.8 179.6,212.8 179.6,215.1 182.9,215.1 182.9,216 179.6,216 
	179.6,219.4 178.6,219.4 "/>
<polygon class="st1" points="187.3,211.9 188.8,211.9 192.5,218.1 192.5,211.9 193.5,211.9 193.5,219.4 192.1,219.4 188.3,213 
	188.3,219.4 187.3,219.4 "/>
<polygon class="st1" points="195,211.9 199.8,211.9 199.8,212.8 196,212.8 196,215.1 199.6,215.1 199.6,216 196,216 196,218.5 
	199.8,218.5 199.8,219.4 195,219.4 "/>
<polygon class="st1" points="201.9,211.9 203.5,218.1 205.3,211.9 206.6,211.9 208.3,218.1 210,211.9 211.1,211.9 208.8,219.4 
	207.7,219.4 205.9,213 204,219.4 202.9,219.4 200.7,211.9 "/>
<polygon class="st1" points="214.4,218.4 218.8,212.8 214.6,212.8 214.6,211.9 220.1,211.9 220.1,212.9 215.7,218.5 220.2,218.5 
	220.2,219.4 214.4,219.4 "/>
<polygon class="st1" points="221.3,211.9 226.1,211.9 226.1,212.8 222.4,212.8 222.4,215.1 225.9,215.1 225.9,216 222.4,216 
	222.4,218.5 226.1,218.5 226.1,219.4 221.3,219.4 "/>
<path class="st1" d="M229.3,216.6h2.9l-1.4-3.7L229.3,216.6z M230.3,211.9h1.1l3.1,7.6h-1.1l-0.8-2H229l-0.8,2H227L230.3,211.9z"/>
<polygon class="st1" points="235.4,211.9 236.4,211.9 236.4,218.5 240,218.5 240,219.4 235.4,219.4 "/>
<path class="st1" d="M242.8,216.6h2.9l-1.4-3.7L242.8,216.6z M243.8,211.9h1.1l3.1,7.6h-1.1l-0.8-2h-3.5l-0.8,2h-1.1L243.8,211.9z"
	/>
<polygon class="st1" points="248.8,211.9 250.3,211.9 254,218.1 254,211.9 255,211.9 255,219.4 253.6,219.4 249.8,213 249.8,219.4 
	248.8,219.4 "/>
<path class="st1" d="M257.6,218.6h1c0.7,0.1,1.4-0.1,2-0.4c0.7-0.6,1.1-1.5,1-2.4c0-0.8-0.2-1.7-0.7-2.4c-0.5-0.5-1.3-0.8-2-0.7
	h-1.3V218.6z M256.6,211.8h2.2c1.1-0.2,2.3,0.2,3.1,1c0.6,0.8,1,1.8,0.9,2.9c0.1,1.2-0.4,2.3-1.3,3.1c-0.8,0.5-1.8,0.8-2.8,0.6h-2.1
	L256.6,211.8z"/>
<rect x="105" y="206.1" class="st1" width="157.6" height="0.7"/>
<rect x="84" y="29" class="st5" width="200" height="200"/>
</svg>
