<svg xmlns="http://www.w3.org/2000/svg" xmlns:xlink="http://www.w3.org/1999/xlink" width="1145" height="240" viewBox="0 0 1145 240"><defs><clipPath id="b"><rect width="1145" height="240"/></clipPath></defs><g id="a" clip-path="url(#b)"><g transform="translate(335 44.999)"><path d="M121.519,483.738,20.983,368.4H0V518.388H21.725V403.246l99.521,113.7,1.287,1.445h20.711V368.4H121.519Z" transform="translate(0 -368.4)" fill="#fff"/><path d="M133.427,375.21c-42.56,0-64.137,22.748-64.137,67.633s21.552,67.608,64.137,67.608,64.112-22.748,64.112-67.608S175.962,375.21,133.427,375.21Zm42.634,67.633c0,33.51-12.372,47.184-42.634,47.184-21.107,0-42.659-5.6-42.659-47.184,0-23.336,4.949-47.184,42.659-47.184C163.714,395.659,176.061,409.333,176.061,442.843Z" transform="translate(102.162 -360.456)" fill="#fff"/><path d="M309.338,374.5a170.79,170.79,0,0,0-61.86,12.23l-2.6,1.1V509.321h21.478V402.214a179.87,179.87,0,0,1,43.154-6.776h4.157V374.549Z" transform="translate(361.055 -359.325)" fill="#fff"/><path d="M224.388,387.433a115.887,115.887,0,0,0-32.167-4.406c-42.263,0-62.8,21.717-62.8,66.377,0,45.615,20.513,68.729,60.945,68.729,52.73,0,55.4-36.336,55.4-43.607V370H224.388ZM151.22,449.4c0-23.848,4.949-45.933,41.075-45.933a93.005,93.005,0,0,1,32.167,5.68v65.889c0,14.176-12.694,22.649-33.949,22.649C170.074,497.688,151.22,491.836,151.22,449.4Z" transform="translate(190.819 -368.236)" fill="#fff"/><path d="M247.935,375.32c-24.274,0-41.768,9.515-51.963,28.251a86,86,0,0,0-9.23,39.7c0,11.789,1.955,28.739,11.259,42.535,10.838,16.069,28.9,24.239,53.645,24.239,16.381,0,33.009-3.179,44.54-8.511l2.474-1.126V477.267l-6.31,3.449c-9.6,5.209-24.422,8.341-39.591,8.341-25.264,0-39.59-10.225-42.659-30.354l-.817-6.287h97.863v-4.133a61.27,61.27,0,0,0,.247-6.947C307.3,425.9,303.016,375.32,247.935,375.32Zm-38.948,57.21c2.2-25.56,13.709-36.518,38.156-36.518,30.905,0,36.943,23.922,37.982,36.518Z" transform="translate(275.329 -360.043)" fill="#fff"/><path d="M339.642,375.21c-42.535,0-64.112,22.748-64.112,67.633s21.577,67.608,64.112,67.608,64.112-22.748,64.112-67.608S382.178,375.21,339.642,375.21Zm42.634,67.633c0,33.51-12.372,47.184-42.634,47.184-21.082,0-42.634-5.6-42.634-47.184,0-23.336,4.949-47.184,42.634-47.184C369.929,395.659,382.276,409.333,382.276,442.843Z" transform="translate(406.246 -360.456)" fill="#fff"/></g><path d="M0,0V240H130V135l90,105h20V0Z" fill="#4ca9b2"/></g></svg>